HIERARCHY
ROOT Hips
{
	OFFSET 0.00000 0.00000 0.00000
	CHANNELS 6 Xposition Yposition Zposition Zrotation Yrotation Xrotation 
	JOINT RightUpLegDummy
	{
		OFFSET 0 0 0
		CHANNELS 3 Zrotation Yrotation Xrotation
		JOINT RightUpLeg
		{
			OFFSET -3.52197 -3.41223 0.04002
			CHANNELS 3 Zrotation Yrotation Xrotation
			JOINT RightLeg
			{
				OFFSET 0.00006 -17.42390 1.60435
				CHANNELS 3 Zrotation Yrotation Xrotation
				JOINT RightFoot
				{
					OFFSET 0.06153 -16.50078 -1.63901
					CHANNELS 3 Zrotation Yrotation Xrotation
					JOINT RightToes
					{
						OFFSET 0.00298 -1.73825 3.34613
						CHANNELS 3 Zrotation Yrotation Xrotation
						End Site
						{
							OFFSET 0.00480 -0.05416 3.85043
						}
					}
				}
			}
		}
	}
	JOINT SpineDummy
	{
		OFFSET 0 0 0
		CHANNELS 3 Zrotation Yrotation Xrotation
		JOINT Spine
		{
			OFFSET 0.00000 4.68130 0.00000
			CHANNELS 3 Zrotation Yrotation Xrotation
			JOINT Spine1
			{
				OFFSET -0.00000 10.10138 0.05002
				CHANNELS 3 Zrotation Yrotation Xrotation
				JOINT HEadDummy
				{
					OFFSET 0 0 0
					CHANNELS 3 Zrotation Yrotation Xrotation
					JOINT Head
					{
						OFFSET -0.00000 3.43865 0.00438
						CHANNELS 3 Zrotation Yrotation Xrotation
						End Site
						{
							OFFSET -0.11417 5.02924 0.98962
						}
					}
				}
				JOINT LeftShoulder1Dummy
				{
					OFFSET 0 0 0
					CHANNELS 3 Zrotation Yrotation Xrotation
					JOINT LeftShoulder1
					{
						OFFSET 3.53937 -0.14262 -0.08662
						CHANNELS 3 Zrotation Yrotation Xrotation
						JOINT LeftArm
						{
							OFFSET 4.04833 -0.00133 0.12681
							CHANNELS 3 Zrotation Yrotation Xrotation
							JOINT LeftForeArm
							{
								OFFSET 10.33880 -0.01036 -0.55515
								CHANNELS 3 Zrotation Yrotation Xrotation
								JOINT LeftHand
								{
									OFFSET 8.69677 0.07543 0.40060
									CHANNELS 3 Zrotation Yrotation Xrotation
									End Site
									{
										OFFSET 5.28377 -0.21905 0.59205
									}
								}
							}
						}
					}
				}
				JOINT RightShoulderDummy
				{
					OFFSET 0 0 0
					CHANNELS 3 Zrotation Yrotation Xrotation
					JOINT RightShoulder
					{
						OFFSET -3.53937 -0.14262 -0.08660
						CHANNELS 3 Zrotation Yrotation Xrotation
						JOINT RightArm
						{
							OFFSET -4.04833 -0.00133 0.12683
							CHANNELS 3 Zrotation Yrotation Xrotation
							JOINT RightForeArm
							{
								OFFSET -10.37987 -0.01039 -0.55511
								CHANNELS 3 Zrotation Yrotation Xrotation
								JOINT RightHand
								{
									OFFSET -8.67398 0.07538 0.40058
									CHANNELS 3 Zrotation Yrotation Xrotation
									End Site
									{
										OFFSET -5.24810 -0.21916 0.59204
									}
								}
							}
						}
					}
				}
			}
		}
	}
	JOINT LeftUpLegDummy
	{
		OFFSET 0 0 0
		CHANNELS 3 Zrotation Yrotation Xrotation
		JOINT LeftUpLeg
		{
			OFFSET 3.52197 -3.41223 0.04002
			CHANNELS 3 Zrotation Yrotation Xrotation
			JOINT LeftLeg
			{
				OFFSET -0.00012 -17.42399 1.60337
				CHANNELS 3 Zrotation Yrotation Xrotation
				JOINT LeftFoot
				{
					OFFSET -0.09972 -16.50070 -1.63802
					CHANNELS 3 Zrotation Yrotation Xrotation
					JOINT LeftToes
					{
						OFFSET -0.01575 -1.73823 3.34611
						CHANNELS 3 Zrotation Yrotation Xrotation
						End Site
						{
							OFFSET 0.03150 -0.01868 3.85031
						}
					}
				}
			}
		}
	}
}
MOTION
Frames: 14
Frame Time: 0.033333
31.1231 39.5372 68.6465 -175.7080 -2.3831 -179.6580 0.0000 0.0000 0.0000 1.7074 -2.0446 1.6126 -0.4609 -2.6876 5.3501 0.0246 -0.0381 -7.2288 0.0000 -0.0000 0.0000 0.0000 0.0000 0.0000 5.4782 -1.0964 -2.8003 -2.9134 -0.9096 4.7655 -0.0000 0.0000 -0.0000 -1.5017 2.8132 -18.6013 -0.0000 0.0000 -0.0000 -33.6341 -2.9686 2.5668 -45.6180 -15.0008 -7.3947 -14.6138 4.6170 51.5604 27.5079 11.1745 1.3578 -0.0000 0.0000 -0.0000 35.1501 5.2680 3.6112 40.3465 8.3443 -14.3843 11.5715 -1.8228 24.4014 -12.5656 1.5157 -0.7352 0.0000 0.0000 0.0000 3.0450 -0.0417 -3.4319 3.8743 7.6636 15.2188 3.0141 0.0928 -12.1061 0.0000 0.0000 -0.0000
31.0671 39.5115 68.5464 -175.6420 -2.4364 -179.7010 0.0000 0.0000 0.0000 1.6725 -2.1306 1.6539 -0.4438 -2.6933 5.7174 0.0205 -0.0371 -7.4910 0.0000 -0.0000 0.0000 0.0000 0.0000 0.0000 5.5497 -1.1845 -2.8254 -2.9875 -0.9941 4.6417 -0.0000 0.0000 -0.0000 -1.6433 2.7293 -18.7752 -0.0000 0.0000 -0.0000 -33.8132 -3.0122 2.5958 -45.3426 -14.7030 -7.0889 -14.7149 4.5691 51.2837 27.4654 11.3567 1.3990 -0.0000 0.0000 -0.0000 35.1576 5.2776 3.6112 40.2867 8.2067 -14.4128 11.5699 -1.8460 24.3233 -12.5873 1.2586 -0.7105 0.0000 0.0000 0.0000 3.0263 -0.4538 -3.4448 4.0091 8.0252 15.6929 3.1326 0.1011 -12.3291 0.0000 0.0000 -0.0000
30.9622 39.4591 68.3614 -175.5340 -2.3994 -179.8290 0.0000 0.0000 0.0000 1.5950 -2.2638 1.7298 -0.4322 -2.5892 6.4986 -0.0248 -0.0327 -8.0182 0.0000 -0.0000 0.0000 0.0000 0.0000 0.0000 5.6941 -1.3027 -2.8983 -3.1814 -1.0882 4.6300 -0.0000 0.0000 -0.0000 -1.7732 2.7052 -19.3822 -0.0000 0.0000 -0.0000 -33.8816 -3.0163 2.6019 -45.0985 -14.4953 -6.7466 -14.8156 4.5182 50.9867 27.5212 11.6777 1.4792 -0.0000 0.0000 -0.0000 35.1016 5.2768 3.6112 40.2704 8.2075 -14.5553 11.5243 -2.0198 24.2968 -12.5143 0.9753 -0.6778 0.0000 0.0000 0.0000 3.0112 -0.8720 -3.4019 4.1539 8.5503 16.5718 3.4096 0.1201 -12.7919 0.0000 0.0000 -0.0000
30.8521 39.3986 68.1746 -175.4260 -2.1214 179.9800 0.0000 0.0000 0.0000 1.5234 -2.3143 1.8060 -0.4643 -2.2888 7.3794 -0.0442 -0.0299 -8.5709 0.0000 -0.0000 0.0000 0.0000 0.0000 0.0000 5.8694 -1.3224 -2.8764 -3.4608 -1.0561 4.6948 -0.0000 0.0000 -0.0000 -1.7555 2.6973 -20.2624 -0.0000 0.0000 -0.0000 -33.6930 -2.9703 2.5713 -45.1097 -14.6270 -6.4518 -14.8695 4.4794 50.9918 27.9448 12.1046 1.6087 -0.0000 0.0000 -0.0000 35.1119 5.2774 3.6123 40.2357 8.3302 -14.6129 11.5092 -2.1434 24.2570 -12.4676 0.9131 -0.6690 0.0000 0.0000 0.0000 2.9916 -0.8568 -3.2785 4.2691 8.9157 17.4978 3.6842 0.1432 -13.3099 0.0000 0.0000 -0.0000
30.7516 39.3490 68.0119 -175.3200 -1.6087 179.7770 0.0000 0.0000 0.0000 1.4744 -2.2648 1.9334 -0.4984 -1.8025 8.0307 0.0334 -0.0339 -8.9523 0.0000 -0.0000 0.0000 0.0000 0.0000 0.0000 6.0994 -1.2258 -2.7436 -3.8266 -0.8821 4.7229 -0.0000 0.0000 -0.0000 -1.7377 2.5543 -21.1200 -0.0000 0.0000 -0.0000 -33.4224 -2.9471 2.5444 -45.1837 -14.8638 -5.8536 -14.9824 4.3982 50.8958 28.6370 12.5691 1.7693 -0.0000 0.0000 -0.0000 35.2733 5.2973 3.6350 40.1537 8.4210 -14.4483 11.5757 -2.0276 24.0963 -12.5427 0.9460 -0.6764 0.0000 0.0000 0.0000 2.9357 -0.6389 -3.0515 4.4705 9.2663 18.2308 3.7781 0.1612 -13.7287 0.0000 0.0000 -0.0000
30.6514 39.3236 67.8472 -175.2300 -1.0045 179.6040 0.0000 0.0000 0.0000 1.3748 -2.2707 2.2169 -0.4360 -1.1966 8.2778 0.1673 -0.0370 -9.0966 0.0000 -0.0000 0.0000 0.0000 0.0000 0.0000 6.3549 -1.1104 -2.6558 -4.2355 -0.6822 4.7472 -0.0000 0.0000 -0.0000 -1.8558 2.3273 -21.9017 -0.0000 0.0000 -0.0000 -33.2632 -2.9812 2.5475 -45.0819 -14.9594 -4.9216 -15.1851 4.2538 50.4260 29.3200 12.8655 1.8922 -0.0000 0.0000 -0.0000 35.4589 5.3247 3.6630 40.1408 8.5063 -14.1970 11.6636 -1.7903 23.8881 -12.5613 0.9232 -0.6752 0.0000 0.0000 0.0000 2.8075 -0.5812 -2.6488 4.7765 9.8278 18.5894 3.7177 0.1693 -13.9707 0.0000 0.0000 -0.0000
30.5473 39.3226 67.6615 -175.2090 -0.4295 179.4890 0.0000 0.0000 0.0000 1.1317 -2.4681 2.6340 -0.2510 -0.5470 8.1981 0.2837 -0.0393 -9.0692 0.0000 -0.0000 0.0000 0.0000 0.0000 0.0000 6.4400 -1.0449 -2.7526 -4.4828 -0.5652 4.8522 -0.0000 0.0000 -0.0000 -2.0355 2.1887 -22.7588 -0.0000 0.0000 -0.0000 -33.2748 -3.0261 2.5659 -44.8179 -15.0256 -4.1222 -15.3638 4.1014 50.0995 30.0198 12.9451 1.9632 -0.0000 0.0000 -0.0000 35.4705 5.3289 3.6658 40.3100 8.6875 -14.0143 11.7100 -1.6262 23.7649 -12.3389 0.9410 -0.6647 0.0000 0.0000 0.0000 2.5687 -0.6001 -2.0639 5.0622 10.4547 18.5020 3.6614 0.1703 -14.0332 0.0000 0.0000 -0.0000
30.4488 39.3409 67.4715 -175.2880 0.1469 179.4760 0.0000 0.0000 0.0000 0.7667 -2.7629 3.0270 -0.0352 0.0739 7.9359 0.4058 -0.0417 -8.9163 0.0000 -0.0000 0.0000 0.0000 0.0000 0.0000 6.2284 -0.9845 -3.0423 -4.4349 -0.5051 5.0498 -0.0000 0.0000 -0.0000 -2.1949 2.1249 -23.7297 -0.0000 0.0000 -0.0000 -33.4209 -3.0285 2.5763 -44.5426 -15.2953 -3.6486 -15.4610 3.9830 50.2937 30.9117 13.0743 2.0633 -0.0000 0.0000 -0.0000 35.2957 5.3043 3.6398 40.6345 8.9211 -13.8153 11.7477 -1.4573 23.6886 -12.0509 1.0918 -0.6635 0.0000 0.0000 0.0000 2.2341 -0.4457 -1.4108 5.2296 10.9285 18.0370 3.6486 0.1661 -13.9304 0.0000 0.0000 -0.0000
30.3598 39.3720 67.2992 -175.3940 0.8286 179.5790 0.0000 0.0000 0.0000 0.4217 -2.9541 3.2543 0.1077 0.6507 7.6292 0.6135 -0.0466 -8.6150 0.0000 -0.0000 0.0000 0.0000 0.0000 0.0000 5.9590 -0.8717 -3.4148 -4.3514 -0.3969 5.2508 -0.0000 0.0000 -0.0000 -2.3987 1.9654 -24.7080 -0.0000 0.0000 -0.0000 -33.5722 -2.9999 2.5764 -44.3184 -15.6935 -3.1458 -15.5460 3.8660 50.5466 31.8583 13.4334 2.2345 -0.0000 0.0000 -0.0000 35.1546 5.2836 3.6186 40.9930 9.0720 -13.4436 11.8375 -1.0665 23.4897 -12.0349 1.1960 -0.6726 0.0000 0.0000 0.0000 1.8856 -0.1245 -0.8319 5.3395 11.3155 17.4040 3.5783 0.1558 -13.6948 0.0000 0.0000 -0.0000
30.2752 39.4122 67.1508 -175.4230 1.6327 179.7360 0.0000 0.0000 0.0000 0.2066 -2.9720 3.3211 0.1767 1.2363 7.3990 0.9301 -0.0563 -8.1239 0.0000 -0.0000 0.0000 0.0000 0.0000 0.0000 5.9818 -0.7269 -3.6867 -4.6093 -0.1987 5.3226 -0.0000 0.0000 -0.0000 -2.6857 1.6794 -25.6849 -0.0000 0.0000 -0.0000 -33.5536 -2.9921 2.5725 -44.1335 -15.9685 -2.5602 -15.6336 3.7506 50.6504 32.6180 13.8003 2.3996 -0.0000 0.0000 -0.0000 35.2359 5.2965 3.6312 41.3006 9.1230 -12.9583 11.9669 -0.4907 23.1273 -12.2603 1.0875 -0.6748 0.0000 0.0000 0.0000 1.6136 0.2153 -0.3639 5.4831 11.7812 16.8013 3.4174 0.1406 -13.3623 0.0000 0.0000 -0.0000
30.1963 39.4592 67.0292 -175.3600 2.4823 179.8480 0.0000 0.0000 0.0000 0.1014 -2.8900 3.3215 0.2384 1.8656 7.3090 1.3280 -0.0727 -7.4653 0.0000 -0.0000 0.0000 0.0000 0.0000 0.0000 6.2358 -0.5892 -3.7023 -5.1026 0.0339 5.2165 -0.0000 0.0000 -0.0000 -2.9745 1.4017 -26.7872 -0.0000 0.0000 -0.0000 -33.3667 -3.0262 2.5718 -43.9883 -16.1265 -2.3314 -15.6389 3.6992 51.2298 33.3458 13.9201 2.4944 -0.0000 0.0000 -0.0000 35.4252 5.3253 3.6602 41.5888 9.2012 -12.5510 12.0751 -0.0140 22.8017 -12.3203 0.9465 -0.6643 0.0000 0.0000 0.0000 1.4561 0.5488 0.0415 5.6394 12.3003 16.3237 3.2391 0.1232 -12.9478 0.0000 0.0000 -0.0000
30.1305 39.5096 66.9406 -175.2670 3.3273 179.8690 0.0000 0.0000 0.0000 0.0357 -2.7907 3.2998 0.3195 2.4978 7.3422 1.7770 -0.0968 -6.7406 0.0000 -0.0000 0.0000 0.0000 0.0000 0.0000 6.3535 -0.4447 -3.4661 -5.3608 0.2404 5.0412 -0.0000 0.0000 -0.0000 -3.2266 1.1945 -28.0585 -0.0000 0.0000 -0.0000 -33.2511 -3.0660 2.5800 -43.8548 -16.3921 -2.3729 -15.5833 3.6820 52.3972 34.3301 13.9129 2.5741 -0.0000 0.0000 -0.0000 35.4410 5.3288 3.6631 41.9495 9.4036 -12.2419 12.1472 0.2277 22.7399 -12.0326 1.0228 -0.6558 0.0000 0.0000 0.0000 1.3858 0.8956 0.3953 5.7635 12.7839 16.0275 3.0502 0.1050 -12.4710 0.0000 0.0000 -0.0000
30.0756 39.5572 66.8814 -175.1810 4.1663 179.8360 0.0000 0.0000 0.0000 -0.0179 -2.7006 3.2287 0.4050 3.0641 7.4676 2.2137 -0.1239 -6.0587 0.0000 -0.0000 0.0000 0.0000 0.0000 0.0000 6.2648 -0.2709 -3.1106 -5.3082 0.4312 4.9130 -0.0000 0.0000 -0.0000 -3.4599 1.0023 -29.3819 -0.0000 0.0000 -0.0000 -33.3426 -3.0724 2.5885 -43.6808 -16.7896 -1.9984 -15.6077 3.5836 53.2473 35.4071 14.0088 2.6945 -0.0000 0.0000 -0.0000 35.2506 5.3055 3.6363 42.3757 9.6542 -11.8619 12.2267 0.4059 22.9185 -11.7245 1.2178 -0.6570 0.0000 0.0000 0.0000 1.3474 1.1926 0.6660 5.8962 13.2644 15.9327 2.7767 0.0878 -11.9911 0.0000 0.0000 -0.0000
30.0206 39.5971 66.8369 -175.0940 4.9714 179.7800 0.0000 0.0000 0.0000 -0.0724 -2.6440 3.1071 0.5100 3.5836 7.7016 2.5427 -0.1445 -5.4837 0.0000 -0.0000 0.0000 0.0000 0.0000 0.0000 6.2584 -0.0872 -2.7271 -5.3750 0.6558 4.8092 -0.0000 0.0000 -0.0000 -3.5879 0.7897 -30.6239 -0.0000 0.0000 -0.0000 -33.4190 -3.0703 2.5927 -43.5317 -17.1372 -1.2002 -15.7129 3.4219 53.4501 36.1951 14.1352 2.8022 -0.0000 0.0000 -0.0000 35.1350 5.2953 3.6217 42.7070 9.7898 -11.3508 12.3424 0.6864 23.1224 -11.7125 1.2944 -0.6634 0.0000 0.0000 0.0000 1.3059 1.3975 0.8948 6.0657 13.7861 15.9356 2.4514 0.0748 -11.5867 0.0000 0.0000 -0.0000
